<?xml version="1.0" encoding="UTF-8"?>
<svg id="Layer_1" data-name="Layer 1" xmlns="http://www.w3.org/2000/svg" viewBox="0 0 500 500">
  <defs>
    <style>
      .cls-1 {
        fill: #f1f2f2;
      }

      .cls-2 {
        fill: #0a0c0e;
      }
    </style>
  </defs>
  <rect class="cls-2" x="0" width="500" height="500" rx="62.53" ry="62.53"/>
  <path class="cls-1" d="M300.07,119.14c.73,0,1.23.79,1.07,1.3-3.8,12.14-7.84,24.09-12.48,36.03-12.03,30.96-29.82,59.24-52.35,83.57-15.49,16.73-43.51,36.29-63.46,47.18l-30.77,16.79c-6.24,3.4-11.99,6.85-17.62,11.18-11.49,8.86-20.89,19.69-27.79,32.47l-5.98,13.84-42.87-.04,30.22-72.15,26.55-63.47,20.06-48.08,24.52-58.58,41.58-.04,12.87,31.37,11.04,26.88c-5.7,7.35-11.49,14.36-17.61,21.35l-10.23,10.42-16.81-41.28-42.54,102c22.77-11.19,40.74-22.08,60.74-37.45,9.33-7.17,17.74-15.01,25.43-23.95,21.57-25.08,42.39-57.04,50.51-89.35h35.92Z"/>
  <path class="cls-1" d="M321.38,343.03l-8.13,5.94-12.82-37.92,74.67-55.41,33.03-24.65-47.24-34.36-55.26-39.85,12.95-37.61,58.16,41.99,33.83,24.73,31.03,23.09c6.87,5.11,10.82,14.17,10.57,22.91-.23,8.11-4.15,16.75-10.7,21.63l-66.98,49.82-53.11,39.71Z"/>
  <path class="cls-1" d="M297.96,359.29c.22.65.34,1.31.19,1.61s-.87.62-1.32.62h-47.07s-13.36-31.91-13.36-31.91l-20.87-49.25c10.52-7.91,20.5-15.75,30.88-24.42l12.63,29.83,17.19,41.72,8.58-6.22,13.16,38.01Z"/>
</svg>